# xmcd
#
# Track frame offsets:
#       150
#       12057
#       34185
#       50045
#       72847
#       106540
#       124312
#       142632
#       161900
#       169425
#       179160
#
# Disc length: 3197 seconds
#
# Revision: 0
# Processed by: cddbd v1.4PL0 Copyright (c) Steve Scherf et al.
# Submitted via: CD-DA_X-Tractor v0.21
#
DISCID=970c7b0b
DTITLE=Los Cincos - The Five Deadly Sins
DYEAR=1900
DGENRE=
TTITLE0=Kissing at the carnival
TTITLE1=Miss spiritual tramp 1968
TTITLE2=A national sensation
TTITLE3=Girl from Cambridge
TTITLE4=The blue bayou
TTITLE5=20 miles into london
TTITLE6=the five deadly sins
TTITLE7=the somnambulist limb dance
TTITLE8=sitting in an igloo all day
TTITLE9=the marigold comedown
TTITLE10=I don't understand this rhythms
EXTD=
EXTT0=
EXTT1=
EXTT2=
EXTT3=
EXTT4=
EXTT5=
EXTT6=
EXTT7=
EXTT8=
EXTT9=
EXTT10=
PLAYORDER=
